<?xml version="1.0" encoding="iso-8859-1"?>
<!-- Generator: Adobe Illustrator 21.1.0, SVG Export Plug-In . SVG Version: 6.00 Build 0)  -->
<svg version="1.1" id="Layer_1" xmlns="http://www.w3.org/2000/svg" xmlns:xlink="http://www.w3.org/1999/xlink" x="0px" y="0px"
	 viewBox="0 0 100.75 100.75" style="enable-background:new 0 0 100.75 100.75;" xml:space="preserve">
<g>
	<path d="M96.028,62.468c-0.059-0.394-0.272-0.748-0.592-0.984L62.371,37.041l3.467-4.69c0.169,0.022,0.338,0.041,0.509,0.041
		c0.202,0,0.405-0.015,0.608-0.045c1.068-0.16,2.009-0.727,2.651-1.595l2.538-3.433c1.325-1.792,0.945-4.329-0.848-5.654
		L58.668,12.33c-1.793-1.324-4.329-0.944-5.654,0.848l-2.539,3.434c-0.899,1.217-0.995,2.769-0.415,4.059L36.384,39.172
		c-0.365-0.046-0.736-0.061-1.109-0.005c-1.068,0.16-2.009,0.727-2.651,1.595l-2.538,3.433c-0.642,0.868-0.908,1.935-0.748,3.003
		c0.16,1.068,0.727,2.009,1.595,2.651l12.628,9.335c0.703,0.52,1.536,0.793,2.395,0.793c0.202,0,0.405-0.015,0.608-0.045
		c1.068-0.16,2.009-0.727,2.651-1.595l2.538-3.434c0.642-0.868,0.908-1.935,0.748-3.002c-0.056-0.374-0.179-0.724-0.33-1.059
		l3.474-4.7L79.127,63.5l0,0l0,0l9.583,7.084c0.268,0.198,0.581,0.294,0.891,0.294c0.459,0,0.913-0.21,1.207-0.608l4.943-6.687
		C95.988,63.262,96.087,62.861,96.028,62.468z M54.125,43.151C54.125,43.152,54.124,43.152,54.125,43.151l-4.052,5.481
		l-10.962-8.103L52.158,22.88l10.962,8.103l-8.042,10.879L54.125,43.151z M52.889,18.394l2.538-3.433
		c0.205-0.276,0.521-0.423,0.84-0.423c0.215,0,0.433,0.066,0.619,0.204l12.628,9.335c0.462,0.342,0.561,0.997,0.219,1.459
		l-2.538,3.433c-0.166,0.224-0.409,0.37-0.684,0.412c-0.279,0.042-0.55-0.028-0.774-0.193l-12.628-9.335
		C52.646,19.51,52.547,18.856,52.889,18.394z M49.341,53.118L49.341,53.118l-2.539,3.434c-0.166,0.224-0.408,0.37-0.684,0.412
		c-0.273,0.042-0.55-0.027-0.774-0.193l-12.628-9.335c-0.224-0.166-0.37-0.409-0.412-0.684c-0.041-0.275,0.027-0.55,0.193-0.774
		l2.538-3.434c0.205-0.276,0.52-0.422,0.84-0.422c0.215,0,0.433,0.066,0.619,0.204l12.628,9.335c0.224,0.166,0.37,0.409,0.412,0.684
		C49.575,52.62,49.507,52.895,49.341,53.118z M60.588,39.454l22.276,16.467l-3.16,4.275L57.428,43.729L60.588,39.454z
		 M89.287,67.279l-7.171-5.301l3.16-4.275l7.171,5.301L89.287,67.279z"/>
	<path d="M54.083,72.462h-38c-0.829,0-1.5,0.671-1.5,1.5v13c0,0.829,0.671,1.5,1.5,1.5h38c0.829,0,1.5-0.671,1.5-1.5v-13
		C55.583,73.133,54.912,72.462,54.083,72.462z M52.583,85.462h-35v-10h35V85.462z"/>
	<path d="M15.121,64.775c0.706,0,1.334-0.5,1.472-1.218c0.156-0.813-0.377-1.6-1.191-1.755l-8.915-1.708
		c-0.819-0.162-1.6,0.378-1.755,1.191c-0.156,0.813,0.377,1.6,1.191,1.755l8.915,1.708C14.933,64.767,15.028,64.775,15.121,64.775z"
		/>
	<path d="M6.177,52.902l11.384,6.297c0.23,0.127,0.479,0.188,0.725,0.188c0.528,0,1.041-0.28,1.314-0.774
		c0.401-0.725,0.139-1.638-0.586-2.039L7.63,50.277c-0.725-0.402-1.638-0.139-2.039,0.586S5.452,52.501,6.177,52.902z"/>
	<path d="M20.027,52.904c0.296,0.37,0.732,0.562,1.171,0.562c0.329,0,0.66-0.108,0.937-0.33c0.646-0.518,0.75-1.462,0.232-2.108
		l-5.851-7.302c-0.518-0.646-1.461-0.75-2.108-0.232c-0.646,0.518-0.75,1.462-0.232,2.108L20.027,52.904z"/>
</g>
</svg>
