<?xml version="1.0" encoding="iso-8859-1"?>
<!-- Generator: Adobe Illustrator 21.1.0, SVG Export Plug-In . SVG Version: 6.00 Build 0)  -->
<svg version="1.1" id="Layer_1" xmlns="http://www.w3.org/2000/svg" xmlns:xlink="http://www.w3.org/1999/xlink" x="0px" y="0px"
	 viewBox="0 0 100.75 100.75" style="enable-background:new 0 0 100.75 100.75;" xml:space="preserve">
<path d="M88.009,28.194H71.807v-0.583c0-7.718-6.279-13.996-13.997-13.996H42.19c-7.718,0-13.996,6.278-13.996,13.996v0.583H11.991
	c-0.828,0-1.5,0.672-1.5,1.5v55.191c0,0.828,0.672,1.5,1.5,1.5H88.01c0.828,0,1.5-0.672,1.5-1.5V29.694
	C89.509,28.866,88.837,28.194,88.009,28.194z M31.194,27.611c0-6.063,4.933-10.996,10.996-10.996h15.62
	c6.063,0,10.997,4.933,10.997,10.996v0.583H31.194V27.611z M86.509,31.194v17.827h-29.74c-0.828,0-1.5,0.672-1.5,1.5v5.728
	c0,3.192-2.597,5.789-5.789,5.789s-5.79-2.597-5.79-5.789v-5.728c0-0.828-0.672-1.5-1.5-1.5H13.491V31.194H86.509z M13.491,83.386
	V52.022H40.69v4.228c0,4.847,3.943,8.789,8.79,8.789s8.789-3.942,8.789-8.789v-4.228h28.24v31.364H13.491z"/>
</svg>
