<?xml version="1.0" encoding="UTF-8" standalone="no"?> <svg xmlns:dc="http://purl.org/dc/elements/1.1/" xmlns:cc="http://creativecommons.org/ns#" xmlns:rdf="http://www.w3.org/1999/02/22-rdf-syntax-ns#" xmlns:svg="http://www.w3.org/2000/svg" xmlns="http://www.w3.org/2000/svg" xmlns:sodipodi="http://sodipodi.sourceforge.net/DTD/sodipodi-0.dtd" xmlns:inkscape="http://www.inkscape.org/namespaces/inkscape" id="Layer_1" data-name="Layer 1" viewBox="0 0 101 101" sodipodi:docname="6Tilda_Icons_40_Printery_flyers.svg" inkscape:version="0.92.4 (5da689c313, 2019-01-14)"> <metadata id="metadata11"></metadata> <defs id="defs9"></defs> <title id="title2">Artboard 2 copy 7</title> <path d="M81.5,13h-35A1.5,1.5,0,0,0,45,14.5V21H32.5A1.5,1.5,0,0,0,31,22.5V30H18.5A1.5,1.5,0,0,0,17,31.5v54A1.5,1.5,0,0,0,18.5,87h35A1.5,1.5,0,0,0,55,85.5V78H67.5A1.5,1.5,0,0,0,69,76.5V70H81.5A1.5,1.5,0,0,0,83,68.5v-54A1.5,1.5,0,0,0,81.5,13ZM52,84H20V33H52Zm14-9H55V31.5A1.5,1.5,0,0,0,53.5,30H34V24H66Zm14-8H69V22.5A1.5,1.5,0,0,0,67.5,21H48V16H80Z" id="path4" style="fill:#ffffff;fill-opacity:1"></path> </svg> 