<?xml version="1.0" encoding="UTF-8" standalone="no"?>
<svg
   xmlns:dc="http://purl.org/dc/elements/1.1/"
   xmlns:cc="http://creativecommons.org/ns#"
   xmlns:rdf="http://www.w3.org/1999/02/22-rdf-syntax-ns#"
   xmlns:svg="http://www.w3.org/2000/svg"
   xmlns="http://www.w3.org/2000/svg"
   xmlns:sodipodi="http://sodipodi.sourceforge.net/DTD/sodipodi-0.dtd"
   xmlns:inkscape="http://www.inkscape.org/namespaces/inkscape"
   inkscape:version="1.0 (4035a4fb49, 2020-05-01)"
   sodipodi:docname="money.svg"
   xml:space="preserve"
   style="enable-background:new 0 0 100.353 100.352;"
   viewBox="0 0 100.353 100.352"
   y="0px"
   x="0px"
   id="Layer_1"
   version="1.1"><metadata
   id="metadata17"><rdf:RDF><cc:Work
       rdf:about=""><dc:format>image/svg+xml</dc:format><dc:type
         rdf:resource="http://purl.org/dc/dcmitype/StillImage" /></cc:Work></rdf:RDF></metadata><defs
   id="defs15" /><sodipodi:namedview
   inkscape:current-layer="Layer_1"
   inkscape:window-maximized="1"
   inkscape:window-y="-8"
   inkscape:window-x="-8"
   inkscape:cy="50.175999"
   inkscape:cx="14.269882"
   inkscape:zoom="5.361129"
   showgrid="false"
   id="namedview13"
   inkscape:window-height="706"
   inkscape:window-width="1366"
   inkscape:pageshadow="2"
   inkscape:pageopacity="0"
   guidetolerance="10"
   gridtolerance="10"
   objecttolerance="10"
   borderopacity="1"
   bordercolor="#666666"
   pagecolor="#ffffff" />
<g
   style="fill:#0857c3;fill-opacity:1"
   id="g10">
	<path
   style="fill:#0857c3;fill-opacity:1"
   id="path2"
   d="M41.76,45.383c-7.691,0-13.949,6.258-13.949,13.949s6.257,13.948,13.949,13.948s13.949-6.257,13.949-13.948   S49.451,45.383,41.76,45.383z M41.76,70.281c-6.037,0-10.949-4.911-10.949-10.948s4.912-10.949,10.949-10.949   c6.038,0,10.949,4.912,10.949,10.949S47.797,70.281,41.76,70.281z" />
	<path
   style="fill:#0857c3;fill-opacity:1"
   id="path4"
   d="M12.399,45.384c-0.829,0-1.5,0.671-1.5,1.5v24.896c0,0.828,0.671,1.5,1.5,1.5s1.5-0.672,1.5-1.5V46.884   C13.899,46.055,13.228,45.384,12.399,45.384z" />
	<path
   style="fill:#0857c3;fill-opacity:1"
   id="path6"
   d="M70.648,45.384c-0.828,0-1.5,0.671-1.5,1.5v24.896c0,0.828,0.672,1.5,1.5,1.5s1.5-0.672,1.5-1.5V46.884   C72.148,46.055,71.477,45.384,70.648,45.384z" />
	<path
   style="fill:#0857c3;fill-opacity:1"
   id="path8"
   d="M95.287,19.142H21.869c-0.829,0-1.5,0.671-1.5,1.5v7.419h-6.72c-0.829,0-1.5,0.671-1.5,1.5v8.248H4.714   c-0.829,0-1.5,0.671-1.5,1.5v40.047c0,0.828,0.671,1.5,1.5,1.5h73.419c0.828,0,1.5-0.672,1.5-1.5v-8.248h7.436   c0.828,0,1.5-0.672,1.5-1.5v-7.419h6.719c0.828,0,1.5-0.672,1.5-1.5V20.642C96.787,19.813,96.115,19.142,95.287,19.142z    M6.214,77.856V40.809h70.419v28.789c0,0.003-0.001,0.006-0.001,0.01s0.001,0.006,0.001,0.01v8.238H6.214z M85.568,68.108h-5.936   V39.309c0-0.829-0.672-1.5-1.5-1.5H15.149v-6.748h70.419V68.108z M93.787,59.189h-5.219V29.561c0-0.829-0.672-1.5-1.5-1.5H23.369   v-5.919h70.418V59.189z" />
</g>
</svg>
