<?xml version="1.0" encoding="UTF-8" standalone="no"?> <svg xmlns:dc="http://purl.org/dc/elements/1.1/" xmlns:cc="http://creativecommons.org/ns#" xmlns:rdf="http://www.w3.org/1999/02/22-rdf-syntax-ns#" xmlns:svg="http://www.w3.org/2000/svg" xmlns="http://www.w3.org/2000/svg" xmlns:sodipodi="http://sodipodi.sourceforge.net/DTD/sodipodi-0.dtd" xmlns:inkscape="http://www.inkscape.org/namespaces/inkscape" id="Слой_1" data-name="Слой 1" viewBox="0 0 101 101" sodipodi:docname="2Tilda_Icons_44_travel_passport.svg" inkscape:version="0.92.4 (5da689c313, 2019-01-14)"> <metadata id="metadata15"></metadata> <defs id="defs13"></defs> <title id="title2">log_Монтажная область 20</title> <path d="M78.5,19H70V7.5a1.5,1.5,0,0,0-1.91-1.44l-46,13-.08,0-.15.06-.12.07-.13.08-.11.09-.1.1-.09.11-.08.12-.07.12L21.1,20l0,.14s0,.09,0,.14a1.49,1.49,0,0,0,0,.16s0,.06,0,.09v69A1.5,1.5,0,0,0,22.5,91h56A1.5,1.5,0,0,0,80,89.5v-69A1.5,1.5,0,0,0,78.5,19ZM67,19H33.32L67,9.48ZM77,88H24V22H77Z" id="path4" style="fill:#0857c3;fill-opacity:1"></path> <path d="M50.5,33a15,15,0,1,0,15,15A15,15,0,0,0,50.5,33Zm0,27a12,12,0,1,1,12-12A12,12,0,0,1,50.5,60Z" id="path6" style="fill:#0857c3;fill-opacity:1"></path> <path d="M60,73H41a1.5,1.5,0,0,0,0,3H60a1.5,1.5,0,0,0,0-3Z" id="path8" style="fill:#0857c3;fill-opacity:1"></path> </svg> 